# xmcd
#
# Track frame offsets:
#	150
#	13775
#	23810
#	34217
#	47247
#	59800
#	78095
#	91585
#	111167
#	129957
#	145442
#	161847
#	175595
#	191860
#	201037
#	218584
#
# Disc length: 3015 seconds
#
# Revision: 1
# Processed by: cddbd v1.5.2PL0 Copyright (c) Steve Scherf et al.
# Submitted via: audiograbber 1.83.01
#
DISCID=db0bc510
DTITLE=Don McLean - The Western Album
DYEAR=2003
DGENRE=Oldies
TTITLE0=Timber Trail
TTITLE1=Ridin' Down The Canyon
TTITLE2=Pal O' Mine
TTITLE3=I Ride An Old Paint
TTITLE4=I've Got Spurs (That Jingle)
TTITLE5=The Trail To Mexico
TTITLE6=Blue Prairie
TTITLE7=The Wild West Is Where I Wanna Be
TTITLE8=Tulsa Time (a) - Deep In The Heart Of Texas (b)
TTITLE9=Lyndon Has A Bear Hug On Dallas
TTITLE10=(Take Me Back To My) Boots And Saddles
TTITLE11=Song Of The Bandit
TTITLE12=Philidalphea Lawyer
TTITLE13=I'm An Old Cowhand
TTITLE14=Sioux Indians
TTITLE15=My Saddle Pal And I
EXTD=
EXTT0=
EXTT1=
EXTT2=
EXTT3=
EXTT4=
EXTT5=
EXTT6=
EXTT7=
EXTT8=
EXTT9=
EXTT10=
EXTT11=
EXTT12=
EXTT13=
EXTT14=
EXTT15=
PLAYORDER=
